<svg width="40" height="40" viewBox="0 0 40 40" fill="none" xmlns="http://www.w3.org/2000/svg">
<rect width="40" height="40" rx="20" fill="#DBE9FF"/>
<path d="M28.3334 15.3337C28.3334 13.3086 26.6917 11.667 24.6667 11.667H15.3334C13.3083 11.667 11.6667 13.3086 11.6667 15.3337V24.667C11.6667 26.692 13.3083 28.3337 15.3334 28.3337H24.6667C26.6917 28.3337 28.3334 26.692 28.3334 24.667V15.3337ZM22.5 20.0003C22.5 18.6196 21.3808 17.5003 20 17.5003C18.6193 17.5003 17.5 18.6196 17.5 20.0003C17.5 21.3811 18.6193 22.5003 20 22.5003C21.3808 22.5003 22.5 21.3811 22.5 20.0003ZM24.25 14.762V14.7503C24.25 14.198 24.6977 13.7503 25.25 13.7503C25.8023 13.7503 26.25 14.198 26.25 14.7503V14.762C26.25 15.3143 25.8023 15.762 25.25 15.762C24.6978 15.762 24.25 15.3143 24.25 14.762ZM24.5 20.0003C24.5 22.4857 22.4854 24.5003 20 24.5003C17.5147 24.5003 15.5 22.4857 15.5 20.0003C15.5 17.515 17.5147 15.5003 20 15.5003C22.4854 15.5003 24.5 17.515 24.5 20.0003ZM30.3334 24.667C30.3334 27.7966 27.7963 30.3337 24.6667 30.3337H15.3334C12.2037 30.3337 9.66669 27.7966 9.66669 24.667V15.3337C9.66669 12.204 12.2037 9.66699 15.3334 9.66699H24.6667C27.7962 9.66699 30.3334 12.204 30.3334 15.3337V24.667Z" fill="#0157A4"/>
</svg>
